<svg xmlns="http://www.w3.org/2000/svg" width="1024" height="1024" viewBox="0 0 1024 1024" version="1.1">
	<path d="M 0 512.001 L 0 1024.002 512.250 1023.751 L 1024.500 1023.500 1024.751 511.750 L 1025.002 0 512.501 0 L 0 0 0 512.001 M 0.496 512.500 C 0.496 794.100, 0.610 909.151, 0.750 768.168 C 0.890 627.186, 0.890 396.786, 0.750 256.168 C 0.610 115.551, 0.496 230.900, 0.496 512.500 M 473.500 56.066 C 390.678 63.043, 309.817 93.499, 244.500 142.318 C 175.671 193.762, 119.644 269.643, 91.157 350 C 66.467 419.645, 59.831 501.711, 73.084 573.500 C 87.236 650.157, 121.443 723.581, 170.444 782.475 C 183.157 797.755, 208.380 823.578, 222.300 835.563 C 289.830 893.708, 372.602 929.712, 464 940.697 C 484.929 943.212, 539.666 943.181, 560 940.642 C 628.214 932.126, 684.949 912.898, 741 879.302 C 824.747 829.105, 890.433 752.412, 925.830 663.500 C 940.472 626.719, 950.639 586.647, 955.641 546 C 957.888 527.741, 958.208 473.219, 956.182 454 C 948.573 381.841, 923.179 312.305, 881.683 250 C 846.474 197.137, 798.448 151.769, 741.244 117.336 C 686.997 84.683, 627.095 64.691, 561.890 57.477 C 544.727 55.579, 489.711 54.700, 473.500 56.066 M 470.500 99.580 C 393.623 107.514, 321.694 136.820, 262.382 184.374 C 192.645 240.286, 146.266 310.942, 124.126 395 C 109.933 448.885, 107.661 515.195, 118.129 570 C 138.664 677.505, 200.463 770.524, 292 831.704 C 345.399 867.394, 409.889 890.245, 474.911 896.514 C 492.570 898.217, 530.056 898.458, 547 896.979 C 594.295 892.848, 642.923 879.321, 685.500 858.451 C 789.083 807.677, 865.729 716.228, 897.507 605.500 C 919.368 529.325, 917.417 445.283, 892.041 370 C 864.580 288.534, 813.583 220.330, 743.500 171.340 C 685.053 130.484, 620.356 106.582, 549.110 99.525 C 530.206 97.652, 488.897 97.681, 470.500 99.580 M 483.500 112.622 C 388.162 120.147, 303.755 159.136, 235.967 226.960 C 197.069 265.879, 168.492 310.194, 149.206 361.500 C 127.579 419.032, 120.389 483.802, 128.542 547.652 C 139.312 632.007, 181.258 715.004, 243.260 774.642 C 286.567 816.297, 333.779 845.097, 390 864.153 C 413.150 871.999, 440.078 878.091, 467 881.572 C 483.814 883.745, 524.027 884.570, 541.070 883.090 C 637.567 874.713, 717.452 837.535, 786.099 769.056 C 817.314 737.917, 837.863 709.242, 858.437 668.110 C 896.335 592.348, 907.648 509.668, 891.907 423.500 C 885.906 390.652, 874.284 356.883, 857.491 323.500 C 823.072 255.081, 770.708 200.488, 702.516 161.930 C 658.043 136.783, 604.448 119.649, 552.500 113.970 C 542.389 112.864, 492.720 111.894, 483.500 112.622 M 496 171.633 C 455.556 175.450, 413.528 193.048, 379 220.623 C 363.081 233.336, 342.457 255.539, 335.431 267.527 L 332.834 271.959 334.833 274.765 C 335.932 276.309, 337.700 280.144, 338.761 283.286 C 340.996 289.908, 341.024 289.895, 347.518 279.203 C 349.621 275.740, 351.699 272.686, 352.136 272.416 C 352.573 272.146, 359.133 274.376, 366.715 277.371 C 374.297 280.366, 385.225 284.266, 391 286.038 C 396.775 287.810, 401.622 289.361, 401.772 289.485 C 401.921 289.609, 400.491 296.034, 398.593 303.764 C 393.100 326.132, 390.015 346.650, 388.447 371.250 L 387.761 382 346.762 382 L 305.762 382 306.490 372.250 C 306.891 366.887, 308.703 355.235, 310.518 346.355 L 313.817 330.210 318.409 325.977 C 321.078 323.517, 324.361 318.981, 326.250 315.144 C 329.261 309.027, 329.500 307.806, 329.500 298.521 C 329.500 290.088, 329.136 287.761, 327.203 283.838 C 323.744 276.815, 317.864 270.746, 310.821 266.927 C 304.821 263.674, 303.992 263.500, 294.500 263.500 C 285.603 263.500, 283.880 263.805, 278.874 266.264 C 272.359 269.464, 264.680 277.208, 261.990 283.289 C 259.102 289.819, 257.915 299.172, 259.137 305.781 C 262.021 321.382, 275.279 333.530, 290.779 334.774 C 297.060 335.279, 297.136 335.320, 296.471 337.893 C 294.518 345.444, 291.886 362.706, 291.341 371.535 L 290.722 381.571 282.188 385.498 C 260.980 395.256, 245.258 409.733, 236.575 427.500 C 231.279 438.336, 229.586 445.035, 229.627 455 C 229.758 487.631, 260.030 506.566, 318.500 510.588 L 328.500 511.276 335.500 520.863 C 343.870 532.326, 363.395 552.752, 374.500 561.662 C 404.604 585.815, 436.924 600.378, 476.500 607.622 C 484.437 609.075, 491.659 609.458, 511.500 609.476 C 533.560 609.497, 537.810 609.234, 547.637 607.241 C 570.998 602.504, 590.578 595.678, 608.921 585.877 C 648.769 564.587, 685.987 525.826, 706.128 484.641 C 708.813 479.150, 711.191 474.476, 711.412 474.255 C 711.633 474.033, 713.147 474.542, 714.776 475.384 C 717.611 476.850, 717.758 477.258, 718.200 484.893 C 719.007 498.838, 726.422 510.087, 738.838 516.203 C 742.654 518.083, 745.132 518.500, 752.500 518.500 C 760.420 518.500, 762.213 518.150, 767.446 515.581 C 775.004 511.869, 780.869 506.004, 784.581 498.446 C 787.150 493.213, 787.500 491.420, 787.500 483.500 C 787.500 475.681, 787.135 473.756, 784.719 468.836 C 781.181 461.632, 775.368 455.819, 768.164 452.281 C 763.176 449.832, 761.365 449.500, 753 449.500 C 742.063 449.500, 737.460 451.202, 729.537 458.176 L 724.900 462.258 720.908 460.459 C 718.411 459.333, 717.108 458.161, 717.427 457.329 C 717.708 456.597, 719.068 451.837, 720.450 446.749 C 729.013 415.226, 730.340 376.861, 723.935 346 C 721.354 333.565, 716.977 319.609, 715.988 320.665 C 715.558 321.124, 713.001 324.425, 710.304 328 L 705.402 334.500 707.184 342 C 709.513 351.809, 712 369.638, 712 376.534 L 712 382 690.500 382 L 669 382 669 389.500 L 669 397 690.500 397 L 712 397 711.997 401.750 C 711.989 416.133, 706.228 442.953, 699.485 460 C 690.425 482.907, 677.290 504.822, 661.213 523.856 L 658.378 527.212 649.939 522.951 C 645.298 520.606, 635.396 516.382, 627.936 513.562 L 614.371 508.435 617.271 500.467 C 621.676 488.364, 627.691 465.075, 630.307 450 L 632.649 436.500 624.574 436.856 C 620.134 437.052, 616.410 437.292, 616.300 437.389 C 616.190 437.486, 615.374 442.457, 614.487 448.434 C 612.545 461.512, 606.897 484.417, 602.869 495.549 L 599.940 503.643 586.220 500.449 C 567.874 496.179, 551.529 493.887, 534 493.128 L 519.500 492.500 519.500 482.703 C 519.500 471.459, 520.046 471.794, 509.397 476.503 L 503.860 478.952 504.108 485.726 L 504.357 492.500 490.928 493.172 C 483.543 493.541, 472.775 494.566, 467 495.449 C 457.918 496.838, 427.900 503.334, 424.455 504.656 C 423.775 504.917, 422.538 503.303, 421.576 500.899 C 419.610 495.984, 419.850 495.700, 427.491 493.911 C 475.973 482.558, 561.405 444.111, 592.322 419.731 L 596.145 416.717 598.822 418.892 C 600.295 420.088, 603.975 422.289, 607 423.783 C 611.763 426.136, 613.707 426.498, 621.500 426.485 C 629.448 426.471, 631.181 426.126, 636.328 423.534 C 652.568 415.355, 660.645 396.635, 655.462 379.184 L 653.924 374.005 657.712 370.842 C 673.650 357.532, 697.583 328.269, 708.147 309.175 C 709.758 306.261, 709.893 306.220, 714.498 307.202 C 721.333 308.660, 729.041 307.345, 736.995 303.366 C 744.918 299.402, 749.525 294.465, 753.597 285.569 C 761.766 267.725, 753.841 246.740, 735.782 238.401 C 730.245 235.844, 728.373 235.500, 720 235.500 C 711.866 235.500, 709.709 235.872, 705 238.086 C 697.753 241.494, 690.502 248.694, 687.181 255.780 C 684.829 260.797, 684.501 262.728, 684.512 271.500 C 684.524 282.673, 686.097 287.248, 692.490 294.718 L 695.868 298.663 689.114 309.082 C 680.163 322.891, 668.808 336.978, 655.433 350.870 L 644.485 362.239 638.493 359.102 C 635.197 357.377, 629.722 355.450, 626.326 354.820 C 610.459 351.878, 592.732 362.600, 587.408 378.360 C 586.191 381.963, 585.890 385.457, 586.244 391.860 C 586.507 396.612, 587.022 401.195, 587.389 402.044 C 588.115 403.726, 578.534 410.419, 557 423.272 C 522.653 443.772, 461.874 469.150, 424.535 478.581 C 421.216 479.419, 417.768 480.319, 416.874 480.581 C 414.986 481.133, 415.072 481.387, 410.943 463.200 C 407.183 446.642, 404.337 426.398, 403.426 409.750 L 402.729 397 453.615 396.999 L 504.500 396.998 504.210 416.999 C 504.050 428, 504.154 437, 504.441 437 C 504.829 437, 516.390 431.651, 518.838 430.338 C 519.025 430.238, 519.120 422.696, 519.050 413.578 L 518.923 397 546.461 397 L 574 397 574 389.500 L 574 382 546.500 382 L 519 382 519 342.500 L 519 303 525.300 303 C 542.258 303, 573.582 299.522, 593.434 295.435 C 602.410 293.587, 605.550 293.272, 606.103 294.166 C 608.003 297.241, 614.078 323.559, 616.510 339.250 L 617.091 343 625.026 343 L 632.962 343 632.367 338.250 C 631.377 330.343, 627.060 310.422, 624.337 301.192 C 622.926 296.411, 621.575 291.823, 621.334 290.995 C 621.001 289.856, 622.910 288.932, 629.197 287.192 C 633.764 285.927, 645.150 281.849, 654.500 278.127 L 671.500 271.362 672.119 265.667 C 672.460 262.535, 673.511 257.950, 674.455 255.478 L 676.172 250.983 668.336 242.346 C 629.632 199.688, 571.587 172.799, 515.500 171.544 C 507.250 171.359, 498.475 171.399, 496 171.633 M 495.464 191.805 C 485.889 195.039, 480.479 198.120, 471.360 205.530 C 458.694 215.821, 445.210 232.633, 435.606 250.107 C 430.322 259.720, 422.862 277.274, 423.733 278.043 C 426.879 280.821, 476.246 286.975, 495.500 286.990 L 504.500 286.997 504.455 238.536 C 504.430 211.883, 504.192 189.858, 503.926 189.593 C 503.660 189.327, 499.852 190.322, 495.464 191.805 M 519.557 189.776 C 519.251 190.083, 519 212.151, 519 238.818 L 519 287.303 536.250 286.703 C 545.737 286.373, 558.675 285.403, 565 284.547 C 577.579 282.845, 599.056 279.083, 600.188 278.384 C 600.580 278.142, 599.332 274.244, 597.416 269.722 C 581.916 233.146, 561.064 207.115, 537.931 195.465 C 531.202 192.076, 520.554 188.780, 519.557 189.776 M 447 199.572 C 426.515 207.050, 404.594 219.807, 387.500 234.199 C 377.804 242.363, 362.324 257.668, 363.053 258.369 C 363.299 258.606, 368.395 260.885, 374.378 263.435 C 385.636 268.233, 405.162 274.446, 407.028 273.824 C 407.613 273.629, 409.573 269.876, 411.384 265.485 C 421.382 241.235, 434.065 221.322, 450.388 204.250 C 454.726 199.713, 457.876 196.024, 457.388 196.052 C 456.900 196.081, 452.225 197.665, 447 199.572 M 575.151 205.764 C 590.046 221.322, 605.120 245.453, 613.151 266.595 L 616.258 274.773 623.379 272.770 C 636.344 269.124, 660 259.464, 660 257.816 C 660 257.393, 654.712 251.706, 648.250 245.178 C 628.612 225.342, 608.548 211.890, 584 202.102 C 563.914 194.094, 563.960 194.075, 575.151 205.764 M 712.500 252.803 C 692.150 262.392, 698.606 291, 721.120 291 C 735.868 291, 745.200 274.724, 738.176 261.251 C 733.654 252.579, 721.477 248.572, 712.500 252.803 M 287.870 279.909 C 278.473 282.960, 272.402 294.352, 275.011 304.042 C 278.488 316.952, 294.477 322.908, 305.363 315.347 C 320.524 304.816, 314.242 280.888, 295.945 279.476 C 292.950 279.245, 289.316 279.440, 287.870 279.909 M 416.970 295.578 C 414.992 300.781, 410.083 321.451, 408.084 333 C 405.954 345.299, 404.486 357.855, 403.438 372.750 L 402.788 382 453.227 382 C 480.969 382, 503.854 381.813, 504.083 381.584 C 504.313 381.355, 504.377 363.580, 504.227 342.084 L 503.954 303 498.122 303 C 478.993 303, 439.091 298.077, 420.595 293.434 C 418.435 292.892, 417.863 293.230, 416.970 295.578 M 615.685 370.961 C 614.137 371.457, 611.275 373.078, 609.326 374.565 C 599.614 381.973, 599.568 399.032, 609.241 406.350 C 615.175 410.840, 624.280 411.656, 630.500 408.257 C 633.625 406.549, 638.769 400.788, 639.939 397.685 C 643.013 389.530, 639.653 378.829, 632.417 373.732 C 628.091 370.685, 620.485 369.425, 615.685 370.961 M 305.768 401.250 C 306.492 410.857, 309.267 428.090, 311.525 437 C 315.933 454.395, 320.437 466.267, 329.292 483.830 L 334.500 494.159 344 493.514 C 349.225 493.159, 358.225 492.200, 364 491.383 C 374.450 489.905, 399.171 485.133, 399.863 484.460 C 400.063 484.266, 399.055 479.433, 397.624 473.719 C 392.623 453.751, 390.630 439.053, 388.405 405.750 L 387.820 397 346.634 397 L 305.447 397 305.768 401.250 M 282.500 403.291 C 272.722 408.579, 267.579 412.543, 260.668 420.116 C 249.019 432.878, 243.524 447.574, 245.979 459.397 C 248.785 472.915, 262.685 483.964, 283.985 489.610 C 290.439 491.320, 307.944 493.955, 313.028 493.982 L 316.556 494 311.414 483.555 C 300.611 461.612, 291.096 424.848, 291.018 404.750 C 291.006 401.614, 290.575 400.008, 289.750 400.023 C 289.063 400.035, 285.800 401.506, 282.500 403.291 M 745.500 466.573 C 736.817 471.089, 733.124 478.818, 735.146 488.245 C 736.402 494.100, 740.061 498.668, 745.459 501.120 C 750.871 503.579, 755.657 503.465, 761.025 500.750 C 770.379 496.019, 774.418 484.625, 769.985 475.470 C 765.654 466.522, 753.846 462.232, 745.500 466.573 M 401.912 500.421 C 401.168 501.165, 371.803 506.769, 362.500 507.941 C 357.550 508.565, 352.031 509.305, 350.235 509.586 L 346.970 510.096 350.019 514.528 C 351.697 516.966, 355.496 521.582, 358.463 524.787 L 363.857 530.613 376.179 524.537 C 382.955 521.195, 393 516.707, 398.500 514.563 C 404 512.419, 408.666 510.538, 408.868 510.382 C 409.070 510.225, 408.419 507.826, 407.420 505.049 C 406.245 501.781, 405.028 500, 403.969 500 C 403.069 500, 402.144 500.189, 401.912 500.421 M 519.426 507.907 C 518.889 508.444, 518.858 591, 519.395 591 C 519.613 591, 523.100 589.603, 527.145 587.895 C 549.441 578.483, 570.713 557.604, 587.247 528.903 C 590.411 523.410, 593 518.749, 593 518.545 C 593 517.742, 570.748 512.916, 557.990 510.953 C 545.091 508.968, 520.322 507.011, 519.426 507.907 M 484 509.086 C 468.068 510.610, 431 518.075, 431 519.760 C 431 520.846, 437.257 531.428, 443.542 540.971 C 458.497 563.680, 478.725 581.846, 496.509 588.540 C 500.104 589.893, 503.373 591, 503.773 591 C 504.173 591, 504.500 572.325, 504.500 549.500 L 504.500 508 498.500 508.136 C 495.200 508.211, 488.675 508.638, 484 509.086 M 604.966 529.250 C 596.258 546.063, 581.693 565.275, 566.682 579.750 C 561.406 584.837, 557.268 589, 557.487 589 C 557.705 589, 563.022 587.443, 569.302 585.539 C 590.875 579, 607.040 570.813, 625.500 557.079 C 635.462 549.667, 646 540.365, 646 538.983 C 646 537.771, 611.412 523, 608.573 523 C 608.369 523, 606.746 525.813, 604.966 529.250 M 405.952 527.908 C 393.886 532.699, 376.483 541.387, 376.557 542.582 C 376.651 544.088, 389.851 554.776, 399.455 561.121 C 416.577 572.435, 435.630 580.998, 454.908 586.042 C 459.083 587.134, 463.248 588.265, 464.162 588.554 C 465.076 588.843, 460.326 583.549, 453.606 576.789 C 440.323 563.428, 432.485 553.164, 422.110 535.545 L 415.403 524.155 405.952 527.908 M 372.500 648.600 C 363.287 650.854, 352.671 657.225, 347.711 663.476 C 340.412 672.675, 337.484 682.821, 338.251 696.266 C 339.167 712.333, 347.349 724.501, 361.820 731.317 C 367.981 734.219, 369.320 734.465, 379.050 734.482 C 389.253 734.499, 389.851 734.376, 397.235 730.728 C 402.282 728.234, 406.247 725.390, 408.935 722.337 C 411.171 719.797, 413 717.410, 413 717.034 C 413 716.657, 411.913 715.327, 410.584 714.079 L 408.168 711.809 404.637 715.716 C 402.696 717.865, 398.721 720.946, 395.804 722.562 C 391.245 725.087, 389.436 725.500, 382.922 725.500 C 376.235 725.500, 374.764 725.144, 370.422 722.471 C 361.050 716.703, 356 705.831, 356 691.424 C 356 667.347, 369.843 652.737, 388.665 656.950 C 397.605 658.950, 403.972 666.759, 403.994 675.750 C 403.999 677.654, 404.539 678, 407.500 678 L 411 678 411 668 C 411 662.500, 411.047 657.663, 411.105 657.250 C 411.298 655.878, 406.573 653.033, 400.500 650.865 C 394.641 648.774, 377.466 647.384, 372.500 648.600 M 534.746 649.086 C 515.029 653.733, 500.654 674.221, 502.276 695.364 C 503.343 709.272, 509.524 720.151, 520.327 727.133 C 528.454 732.386, 535.423 734.282, 546.480 734.248 C 556.879 734.216, 564.394 732.002, 572.622 726.546 C 590.625 714.608, 596.342 689.799, 585.724 669.687 C 582.436 663.461, 574.967 656.044, 568.833 652.915 C 560.119 648.469, 544.707 646.738, 534.746 649.086 M 735.969 649.473 C 725.698 652.782, 719 662.012, 719 672.856 C 719 683.953, 725.004 691.371, 738.268 696.663 C 757.170 704.203, 761.931 708.224, 760.567 715.495 C 758.617 725.890, 745.773 730.006, 734.011 724.006 C 729.659 721.785, 727.314 718.817, 724.977 712.571 C 723.773 709.350, 722.885 708.434, 720.727 708.184 L 718 707.867 718 718.485 L 718 729.102 721.750 730.673 C 732.258 735.073, 748.813 735.800, 759.442 732.327 C 765.723 730.274, 773.078 723.108, 774.778 717.384 C 778.964 703.288, 771.915 691.905, 754.500 684.640 C 741.800 679.341, 737.522 676.619, 735.630 672.633 C 733.625 668.407, 733.600 666.893, 735.464 662.432 C 737.210 658.252, 741.775 656, 748.500 656 C 757.341 656, 763.053 660.522, 764.608 668.750 C 765.133 671.525, 765.645 672, 768.111 672 L 771 672 771 662.139 L 771 652.279 765.250 650.556 C 757.301 648.174, 741.781 647.600, 735.969 649.473 M 208.184 651.692 C 208.429 653.777, 209.229 654.572, 211.727 655.215 C 213.502 655.672, 215.465 657, 216.089 658.166 C 216.713 659.333, 223.080 675.410, 230.237 693.894 C 237.395 712.377, 243.707 728.642, 244.265 730.039 C 245.131 732.207, 245.970 732.607, 250.016 732.783 L 254.753 732.989 267.937 699.895 C 284.454 658.433, 285.359 656.508, 289.074 654.969 C 291.149 654.110, 292 653.065, 292 651.379 L 292 649 277.500 649 C 263.081 649, 263 649.013, 263 651.276 C 263 652.977, 264.073 654.050, 267.250 655.526 C 271.469 657.486, 271.499 657.536, 271.316 662.500 C 271.188 665.951, 268.755 673.851, 263.460 688 C 259.241 699.275, 255.559 709.513, 255.278 710.750 C 254.523 714.074, 253.646 713.510, 252.166 708.750 C 251.440 706.413, 247.281 694.909, 242.923 683.186 C 238.565 671.464, 235 660.743, 235 659.362 C 235 657.381, 235.841 656.498, 238.990 655.176 C 241.957 653.930, 242.982 652.923, 242.990 651.250 C 243 649.002, 242.987 649, 225.434 649 L 207.867 649 208.184 651.692 M 297 651.481 C 297 653.273, 297.674 654.131, 299.426 654.571 C 305.374 656.064, 305.725 658.944, 305.250 702.330 L 305 725.161 301 726.732 C 297.915 727.944, 297 728.841, 297 730.652 L 297 733 314 733 L 331 733 331 730.578 C 331 728.695, 330.219 727.897, 327.492 726.997 C 325.563 726.361, 323.538 725.005, 322.992 723.986 C 322.395 722.870, 322 709.407, 322 690.188 C 322 655.487, 321.808 656.674, 327.686 655.115 C 329.756 654.565, 330.584 653.658, 330.816 651.684 L 331.133 649 314.066 649 L 297 649 297 651.481 M 421 661 C 421 672.977, 421.004 673, 423.384 673 C 425.338 673, 426.173 672.003, 428.011 667.472 C 431.275 659.431, 433.560 658, 443.135 658 L 451 658 451 689.435 C 451 706.980, 450.578 721.979, 450.045 723.381 C 449.389 725.107, 447.825 726.272, 445.045 727.105 C 441.815 728.072, 441 728.788, 441 730.658 L 441 733 458.500 733 L 476 733 476 730.652 C 476 728.856, 475.095 727.948, 472.153 726.792 C 469.079 725.585, 468.175 724.625, 467.653 722.016 C 467.294 720.220, 467 705.034, 467 688.269 L 467 657.788 474.924 658.148 C 484.277 658.573, 487.001 660.418, 489.766 668.204 C 491.244 672.365, 491.835 673, 494.235 673 L 497 673 497 662.582 C 497 656.852, 497.273 651.452, 497.607 650.582 C 498.154 649.156, 494.401 649, 459.607 649 L 421 649 421 661 M 600 651.563 C 600 653.361, 600.868 654.336, 603.420 655.402 C 605.300 656.188, 607.325 657.739, 607.920 658.850 C 609.542 661.882, 609.364 720.722, 607.723 723.966 C 607.019 725.356, 605.062 726.838, 603.237 727.361 C 600.767 728.069, 600 728.847, 600 730.645 L 600 733 617.500 733 L 635 733 635 730.545 C 635 728.536, 634.371 727.973, 631.536 727.441 C 629.630 727.083, 627.531 726.140, 626.870 725.344 C 626.134 724.457, 625.489 718.889, 625.202 710.949 L 624.735 698 630.289 698 L 635.843 698 643.618 711.750 C 647.894 719.313, 653.068 727.204, 655.115 729.286 L 658.836 733.072 669.168 732.786 C 678.374 732.531, 679.500 732.302, 679.500 730.687 C 679.500 729.537, 677.853 728.051, 675 726.627 C 671.048 724.653, 669.437 722.684, 661.765 710.440 C 656.960 702.773, 653.023 695.986, 653.015 695.358 C 653.007 694.731, 654.013 693.958, 655.250 693.642 C 658.829 692.728, 664.869 687.173, 667.199 682.653 C 669.943 677.331, 670.112 667.997, 667.556 663 C 661.653 651.459, 653.296 648.990, 620.484 649.090 L 600 649.153 600 651.563 M 538.852 657.391 C 527.189 661.557, 520.039 674.748, 520.012 692.145 C 519.981 712.074, 529.839 725.549, 545.290 726.699 C 550.674 727.099, 552.231 726.784, 556.993 724.330 C 568.105 718.605, 573.663 706.175, 572.727 689.147 C 572.051 676.861, 570.039 671.298, 563.805 664.477 C 556.777 656.787, 547.732 654.219, 538.852 657.391 M 625.667 657.667 C 625.300 658.033, 625 665.298, 625 673.810 L 625 689.286 632.995 688.738 C 642.295 688.100, 646.398 686.137, 649.137 681.016 C 653.374 673.091, 650.558 663.042, 643.038 659.250 C 638.674 657.049, 627.319 656.014, 625.667 657.667 M 791.357 716.992 C 788.167 718.279, 786 721.977, 786 726.134 C 786 729.025, 786.665 730.382, 789.077 732.411 C 794.025 736.575, 799.616 735.578, 802.490 730.020 C 804.791 725.569, 804.364 722.210, 801.077 718.923 C 798.116 715.963, 795.296 715.402, 791.357 716.992" stroke="none" fill="#51088c" fill-rule="evenodd"/>
</svg>