<svg version="1.2" width="1024" height="1024" baseProfile="tiny-ps" xmlns="http://www.w3.org/2000/svg"><title>bimi-svg-tiny-12-ps</title><path d="M554.309 55.563c5.25.375 10.428.529 15.691.437v1l2.595.427q4.837.798 9.673 1.6l4.16.686c13.03 2.145 13.03 2.145 19.174 3.455 4.476.924 8.597.874 13.148.61L621 64l2 3c2.881 1.112 2.881 1.112 6.352 1.945l3.983 1.061 2.12.552c19.323 5.053 37.87 11.592 56.017 19.968 3.164 1.46 6.152 2.65 9.528 3.474q2.012.975 4 2l3 1 1.625 1.313c4.328 3.075 9.355 5.014 14.375 6.687l2.227 1.805c3.21 2.541 6.553 4.385 10.148 6.32 6.556 3.591 12.788 7.512 18.927 11.776 3.064 2.333 3.064 2.333 6.698 3.099q2.002 1.998 4 4c2.256 1.747 4.595 3.371 6.938 5q1.827 1.28 3.652 2.563l1.761 1.234c1.517 1.107 2.965 2.308 4.403 3.516 2.178 1.987 2.178 1.987 5.246 1.687l.734 1.781c1.507 2.641 3.092 3.889 5.516 5.719 4.446 3.444 8.745 7.014 13 10.688l3.453 2.98 1.67 1.443a295 295 0 0 0 4.736 3.94c2.79 2.363 5.337 4.835 7.891 7.449l2.648 2.613c4.64 4.594 9.187 9.205 13.422 14.18a183 183 0 0 0 4.672 5.133c6.427 6.815 12.358 13.792 17.946 21.316a592 592 0 0 0 4.25 5.606c6.306 8.272 12.283 16.698 17.942 25.425 1.092 1.684 2.194 3.362 3.296 5.04C894 266.737 894 266.737 894 269h2l1.398 2.832c3.349 6.751 6.74 13.47 10.284 20.122 12.18 22.882 22.214 46.467 30.505 71.046l.884 2.605.784 2.395.677 2.063C941 372 941 372 941 376h3l-.172 2.809c.005 5.284 1.553 10.186 2.922 15.253 3 11.57 5.38 23.134 7.25 34.938l.41 2.533c4.463 28.37 6.421 57.766 5.59 86.467h-2l.105 2.113C959.562 576.927 940.277 638.317 916 689l-.99 2.077c-3.996 8.32-8.33 16.451-12.76 24.548l-1.394 2.55A169 169 0 0 1 893 731l-1.008 2.04c-1.348 2.664-3.088 4.938-4.867 7.335l-2.148 2.93L883 746c-3.121 4.065-3.121 4.065-4 9l-3 1a137 137 0 0 0-5.125 6.875c-6.885 9.611-14.408 18.627-22.07 27.624a293 293 0 0 0-5.985 7.235c-2.108 2.625-4.411 4.913-6.82 7.266a1106 1106 0 0 0-3.687 3.625l-1.762 1.727c-1.754 1.772-1.754 1.772-3.551 4.648a306 306 0 0 1-4.887 4.207c-2.349 1.993-4.639 4.042-6.926 6.106l-2.597 2.34a697 697 0 0 0-4.961 4.538C776.747 860.538 740.142 882.036 703 901l-2.29 1.17c-11.24 5.726-11.24 5.726-16.71 7.83v2l-3.437.25c-4.897.603-9.298 2.277-13.563 4.75l-1 2-3-1c-2.97.683-2.97.683-6.125 1.813l-3.258 1.082c-2.749.826-2.749.826-3.617 3.105-1.768.215-3.536.422-5.308.602-5.358.792-10.563 2.36-15.783 3.782q-3.053.83-6.108 1.645c-5.652 1.522-11.261 3.073-16.801 4.971v1l-3.602-.148c-6.708.002-13.19 1.338-19.773 2.523-9.682 1.699-19.332 3.214-29.128 4.08-3.016.266-5.61.583-8.497 1.545a81 81 0 0 1-4.67.145l-2.883.02-3.13.003-3.26.012c-3.498.01-6.996.01-10.495.008l-3.57.002c-17.412-.001-34.663-.367-51.992-2.19l1 2h-10v-3l-4-1 1 3-3-1v-3l-1.574.797c-2.153.97-4.107 1.744-6.426 2.203-2.312-1.687-2.312-1.687-5-4-6.203-1.869-12.378-2.212-18.809-1.777-2.191-.223-2.191-.223-3.9-1.61-2.935-2.067-5.668-2.745-9.139-3.656l-1.979-.525q-2.062-.545-4.127-1.076a875 875 0 0 1-6.314-1.659c-6.776-1.947-6.776-1.947-13.732-2.697v-2l-1.652-.367-2.286-.508-2.472-.547a654 654 0 0 1-5.086-1.156l-2.379-.547-2.18-.508c-2.106-.46-2.106-.46-4.945-.367v-3l-1.871-.55-2.567-.763-2.75-.812c-3.351-1.043-6.628-2.254-9.902-3.52-2.231-.645-2.231-.645-4.91 1.645v-4a415 415 0 0 0-4.687-2l-2.637-1.125c-2.733-.894-4.823-1.04-7.676-.875l-.812-1.937c-1.075-2.394-1.075-2.394-4.188-3.063l-2 2-1.14-2.309c-2.23-3.227-4.066-4.139-7.61-5.754-4.555-2.139-8.92-4.378-13.25-6.937v2l-4-1-.262-1.82c-.947-2.798-2.074-3.502-4.55-5.055l-2.083-1.367c-2.121-1.039-2.121-1.039-4.18.172L275 880l-3-1 1-4-1.59-1.11q-3.345-2.338-6.685-4.683-2.838-1.983-5.682-3.957c-7.011-4.89-13.948-9.84-20.668-15.125l-1.749-1.375a144 144 0 0 1-8.689-7.5c-2.71-2.574-2.71-2.574-5.875-2.125L220 840l1-4-1.338-1.247c-9.581-8.936-19.025-17.978-28.228-27.304a650 650 0 0 0-4.055-4.05 204 204 0 0 1-6.691-7.087l-2.114-2.324C177 792 177 792 177 790l-3-1c-1.586-1.687-1.586-1.687-3.375-4l-2.094-2.691L166 779l-3.344-4.34a3268 3268 0 0 1-6.898-9l-1.465-1.918c-1.147-1.545-2.225-3.14-3.293-4.742-2.06-.724-2.06-.724-4-1l1-2-1.937-1.75c-2.145-2.34-2.413-3.278-3.063-6.25-1.284-2.268-1.284-2.268-3-4h-3c-1-3-1-3-1-7-.988-1.93-.988-1.93-2.375-3.687l-1.336-1.825c-1.24-1.623-1.24-1.623-3.289-2.488l1-2c-.87-2.013-.87-2.013-2.246-4.227l-1.526-2.602c-.55-.923-1.1-1.845-1.665-2.796-3.771-6.463-7.491-12.918-10.813-19.625l-.947-1.902a265 265 0 0 1-4.858-10.508l-1.05-2.353a203 203 0 0 1-1.931-4.494c-1.688-3.794-2.535-5.23-6.206-7.473L96 670l1.637-1.617c1.724-2.378 1.724-2.378.633-5.328l-1.457-3.18-1.418-3.195c-1.257-2.742-1.257-2.742-3.395-4.68h2l-1-1.812C92 648 92 648 92 645l-2-1c-.702-2.01-.702-2.01-1.36-4.684a287 287 0 0 0-3.656-12.976C76.477 598.31 67.504 567.484 68 538l-2-1-.031-2.485q-.147-11.588-.308-23.176-.084-5.957-.158-11.914-.072-5.748-.156-11.496-.031-2.195-.056-4.389a1709 1709 0 0 0-.086-6.14c-.015-1.167-.03-2.332-.047-3.534-.036-2.938-.036-2.938-1.158-5.866.438-2.187.438-2.187 1-4l1 1a34609 34609 0 0 0 2.788-22.729q.511-4.162 1.02-8.326l.316-2.56a522 522 0 0 0 1.628-15.203c.355-3.122 1.073-6.084 1.873-9.12l1.094-4.175.617-2.33c.738-2.84 1.436-5.688 2.133-8.537A497 497 0 0 1 100 323l-1-1-2 2v-4h5a136 136 0 0 0 3-7l-1-2h3l.734-2.488c1.49-4.132 3.426-7.846 5.516-11.7l1.233-2.295q1.215-2.258 2.434-4.512a550 550 0 0 0 2.587-4.857c7.281-13.693 15.346-26.974 24.487-39.504 2.265-3.112 4.343-6.168 6.165-9.562C152 233 152 233 155 232a62 62 0 0 0 2-4c1.008-1.4 2.053-2.774 3.125-4.125l1.902-2.398L164 219l1.816-2.352c4.469-5.727 9.253-11.079 14.236-16.358 2.8-2.906 2.8-2.906 4.948-6.29h2l.787-1.772c1.3-2.387 2.703-3.961 4.627-5.873l2.059-2.052 2.152-2.115 2.082-2.08a246 246 0 0 1 12.507-11.565c2.237-1.932 4.417-3.924 6.599-5.918 6.094-5.502 12.45-10.667 18.886-15.762 2.318-1.81 2.318-1.81 4.301-3.863 1.256-.876 2.53-1.727 3.813-2.562a694 694 0 0 0 11.937-8.063l3.234-2.227a111 111 0 0 0 5.61-4.257c2.317-1.821 4.546-3.16 7.156-4.516a272 272 0 0 0 12.028-6.808A452 452 0 0 1 307 102.125l2.605-1.37C324.525 93 324.525 93 328 93v-3l3 1c2.84-1.06 5.553-2.194 8.313-3.437 67.864-29.481 141.744-37.29 214.996-32M614 65l4 1Zm328 312 1 2ZM100 668l1 2Zm174 207v2l3-1z" fill="#30205c"/><path d="M646.738 221.379a470 470 0 0 1 5.016 4.562c1.956 1.793 3.956 3.49 5.996 5.184 4.138 3.633 7.986 7.545 11.813 11.5l1.954 1.958c4.492 4.727 4.492 4.727 4.448 8.175L675 255c-1.242 4.037-2.029 7.491-2.125 11.688-.237 2.182-.237 2.182-.875 4.312-6.457 3.874-13.67 6.321-20.687 9-1.096.425-2.19.85-3.319 1.29C627.901 289 627.901 289 621 289l.58 1.794c5.476 17.104 10.36 34.192 11.42 52.206h-16l-.883-4.914c-2.567-13.97-5.634-27.625-9.646-41.252C606 295 606 295 606 293l-1.87.411c-18.367 4.011-36.587 7.11-55.317 8.776l-2.766.255c-9.083.739-17.833.558-27.047.558v79h55v15h-55v34c-13 6-13 6-15 6v-40H403c2.364 27.581 5.012 52.173 11.497 78.59C415 478 415 478 415 481c58.95-16.177 119.766-39.338 169.285-75.89C586 404 586 404 588 404l-.977-2.48c-2.252-7.745-2.555-18.059.602-25.582 1.125-2.028 1.125-2.028 2.375-3.938l1.25-2.066c5.235-7.838 13.058-13.214 22.188-15.497 9.733-1.661 18.86-.345 27.132 5.325L643 361c3.035-1.14 5.078-2.822 7.355-5.09l1.872-1.86c.647-.655 1.294-1.311 1.96-1.988l2.037-2.054C661.52 344.605 666.336 338.957 671 333a828 828 0 0 1 2.79-3.344c8.02-9.651 14.72-19.927 21.21-30.656l-1.231-1.598-1.624-2.132-1.607-2.099c-6.606-9.323-7.69-19.01-6.538-30.171 2.553-10.28 8.144-17.805 17.063-23.375 6.35-3.685 12-5.016 19.25-5l2.28.005c5.885.13 10.387 1.181 15.407 4.37l3.125 1.813c7.846 5.97 14.02 13.193 15.875 23.187 1.113 12.334-1.434 22.591-9.355 32.258-6.69 7.088-14.908 11.127-24.684 12.02-4.48.054-8.582-.314-12.961-1.278l-.851 1.446C703.006 318.83 696.606 328.636 689 338l-2.133 2.715c-9.073 11.4-19.223 23.408-30.867 32.285h-2l.656 1.66c3.667 10.44 3.973 21.65-.406 31.914-4.713 9.146-11.873 15.527-21.5 19.363-9.761 2.765-19.893 1.987-28.75-2.937-2.457-1.562-4.703-3.202-7-5-3.841 1.745-7.218 4.128-10.687 6.5-8.232 5.54-16.676 10.62-25.313 15.5l-2.644 1.496C532.831 455.846 506.291 467.506 479 478l-3.006 1.167C457.828 486.188 439.067 491.987 420 496l3 9 3.05-.953c25.566-7.844 51.188-11.752 77.95-11.047v-14c9.375-4.875 9.375-4.875 15-6l1 19 6.375.297c21.414 1.063 42.121 3.437 63.01 8.484 3.612.861 6.896 1.421 10.615 1.219a291.5 291.5 0 0 0 14.457-58.43C615 440 615 440 616 437l16-1c-.568 24.126-7.875 49.758-17 72l2.348.899q5.392 2.072 10.777 4.163l1.944.755c8.433 3.282 16.637 6.736 24.56 11.136 2.443 1.396 2.443 1.396 5.371.047a105 105 0 0 0 5.063-6.125l1.466-1.897c19.82-25.955 34.383-54.97 41.284-86.978l.59-2.688c2.035-10.1 2.606-19.905 3.597-30.312h-43v-15h43c-1.246-15.695-1.246-15.695-3.562-31.25l-.374-2.108c-.51-2.854-1.068-5.656-1.83-8.454-.765-3.413-1.063-5.723.713-8.863 2.718-4.034 5.819-7.699 9.053-11.325 13.595 13.595 12.48 49.682 12.563 67.688-.004 22.695-1.26 50.706-11.563 71.312 3.02 1.223 5.726 2 9 2 2.316-1.428 4.004-3.128 5.938-5.04 6.659-6.33 13.776-7.678 22.659-7.554 8.96.446 17.293 3.565 23.876 9.793 7.246 8.544 10.027 17.101 9.84 28.196-.84 9.681-5.087 17.655-12.09 24.289-8.258 6.771-17.297 9.068-27.868 8.687-9.94-1.1-16.726-6.047-23.355-13.371-6.46-8.926-7.32-18.27-8-29l-6-2c-.27.602-.54 1.205-.82 1.826C698.825 501.905 684.073 523.22 665 543l-1.865 1.947C654.31 554.123 645.268 562.467 635 570l-2.496 1.875c-22.65 16.5-48.318 27.353-75.442 33.938l-2.433.59c-14.118 3.248-27.769 3.966-42.192 3.91l-2.821-.005c-13.42-.039-26.456-.465-39.616-3.308l-2.14-.422c-39.411-7.78-76.418-27.09-105.256-55.025q-1.72-1.665-3.458-3.313c-9.656-9.182-18.128-18.783-25.938-29.582a138 138 0 0 0-3.063-4.017C329 513 329 513 329 511l-2.219.105c-27.166.68-60.777-4.146-82.031-22.355-10.377-9.932-15.394-20.856-16.25-35.25 1.075-17.666 9.08-33.2 21.5-45.5l2.5-2.625L255 403l1.844-1.793C265.026 393.543 279.174 382 291 382l-.105-2.543c-.336-14.923 1.41-30.239 6.105-44.457l-2.055.14c-9.893.384-16.606-1.856-24.195-8.265-7.618-7.259-11.788-14.596-12.043-25.12-.102-12.614 1.981-20.204 10.922-29.556 8.438-7.826 17.107-9.793 28.387-9.512 9.632.756 17.434 5.389 23.93 12.418 7.748 9.418 9.027 17.9 8.274 29.908-1.076 9.709-7.23 17.604-14.22 23.987h-2l-.297 1.887c-.806 4.98-1.656 9.937-2.656 14.883l-.52 2.608q-.503 2.505-1.03 5.004c-1.904 9.55-2.512 18.765-3.497 28.618h82v-16c.34-4.386.726-8.702 1.25-13.062l.409-3.498c2.462-20.33 5.848-40.96 12.341-60.44l-1.792-.306c-6.727-1.235-13.022-3.152-19.458-5.444l-3.034-1.064c-6.861-2.439-13.551-5.12-20.17-8.155-2.551-1.219-2.551-1.219-5.546-1.031a91 91 0 0 0-4.5 6.875c-4.125 6.875-4.125 6.875-7.5 9.125l-.77-2.23-1.043-2.957-1.019-2.918c-1.079-2.94-1.079-2.94-2.867-5.508C333 273 333 273 333.066 271.067 337.551 261.14 345.645 252.82 353 245a531 531 0 0 0 3.688-4.25c5.997-6.86 12.476-12.764 19.628-18.417q1.765-1.399 3.52-2.811c75.258-60.436 180.493-64.785 266.902 1.857" fill="#f7d247"/><path d="M554.309 55.563c5.25.375 10.428.529 15.691.437v1l2.595.427q4.837.798 9.673 1.6l4.16.686c13.03 2.145 13.03 2.145 19.174 3.455 4.476.924 8.597.874 13.148.61L621 64l2 3c2.881 1.112 2.881 1.112 6.352 1.945l3.983 1.061 2.12.552c19.323 5.053 37.87 11.592 56.017 19.968 3.164 1.46 6.152 2.65 9.528 3.474q2.012.975 4 2l3 1 1.625 1.313c4.328 3.075 9.355 5.014 14.375 6.687l2.227 1.805c3.21 2.541 6.553 4.385 10.148 6.32 6.556 3.591 12.788 7.512 18.927 11.776 3.064 2.333 3.064 2.333 6.698 3.099q2.002 1.998 4 4c2.256 1.747 4.595 3.371 6.938 5q1.827 1.28 3.652 2.563l1.761 1.234c1.517 1.107 2.965 2.308 4.403 3.516 2.178 1.987 2.178 1.987 5.246 1.687l.734 1.781c1.507 2.641 3.092 3.889 5.516 5.719 4.446 3.444 8.745 7.014 13 10.688l3.453 2.98 1.67 1.443a295 295 0 0 0 4.736 3.94c2.79 2.363 5.337 4.835 7.891 7.449l2.648 2.613c4.64 4.594 9.187 9.205 13.422 14.18a183 183 0 0 0 4.672 5.133c6.427 6.815 12.358 13.792 17.946 21.316a592 592 0 0 0 4.25 5.606c6.306 8.272 12.283 16.698 17.942 25.425 1.092 1.684 2.194 3.362 3.296 5.04C894 266.737 894 266.737 894 269h2l1.398 2.832c3.349 6.751 6.74 13.47 10.284 20.122 12.18 22.882 22.214 46.467 30.505 71.046l.884 2.605.784 2.395.677 2.063C941 372 941 372 941 376h3l-.172 2.809c.005 5.284 1.553 10.186 2.922 15.253 3 11.57 5.38 23.134 7.25 34.938l.41 2.533c4.463 28.37 6.421 57.766 5.59 86.467h-2l.105 2.113C959.562 576.927 940.277 638.317 916 689l-.99 2.077c-3.996 8.32-8.33 16.451-12.76 24.548l-1.394 2.55A169 169 0 0 1 893 731l-1.008 2.04c-1.348 2.664-3.088 4.938-4.867 7.335l-2.148 2.93L883 746c-3.121 4.065-3.121 4.065-4 9l-3 1a137 137 0 0 0-5.125 6.875c-6.885 9.611-14.408 18.627-22.07 27.624a293 293 0 0 0-5.985 7.235c-2.108 2.625-4.411 4.913-6.82 7.266a1106 1106 0 0 0-3.687 3.625l-1.762 1.727c-1.754 1.772-1.754 1.772-3.551 4.648a306 306 0 0 1-4.887 4.207c-2.349 1.993-4.639 4.042-6.926 6.106l-2.597 2.34a697 697 0 0 0-4.961 4.538C776.747 860.538 740.142 882.036 703 901l-2.29 1.17c-11.24 5.726-11.24 5.726-16.71 7.83v2l-3.437.25c-4.897.603-9.298 2.277-13.563 4.75l-1 2-3-1c-2.97.683-2.97.683-6.125 1.813l-3.258 1.082c-2.749.826-2.749.826-3.617 3.105-1.768.215-3.536.422-5.308.602-5.358.792-10.563 2.36-15.783 3.782q-3.053.83-6.108 1.645c-5.652 1.522-11.261 3.073-16.801 4.971v1l-3.602-.148c-6.708.002-13.19 1.338-19.773 2.523-9.682 1.699-19.332 3.214-29.128 4.08-3.016.266-5.61.583-8.497 1.545a81 81 0 0 1-4.67.145l-2.883.02-3.13.003-3.26.012c-3.498.01-6.996.01-10.495.008l-3.57.002c-17.412-.001-34.663-.367-51.992-2.19l1 2h-10v-3l-4-1 1 3-3-1v-3l-1.574.797c-2.153.97-4.107 1.744-6.426 2.203-2.312-1.687-2.312-1.687-5-4-6.203-1.869-12.378-2.212-18.809-1.777-2.191-.223-2.191-.223-3.9-1.61-2.935-2.067-5.668-2.745-9.139-3.656l-1.979-.525q-2.062-.545-4.127-1.076a875 875 0 0 1-6.314-1.659c-6.776-1.947-6.776-1.947-13.732-2.697v-2l-1.652-.367-2.286-.508-2.472-.547a654 654 0 0 1-5.086-1.156l-2.379-.547-2.18-.508c-2.106-.46-2.106-.46-4.945-.367v-3l-1.871-.55-2.567-.763-2.75-.812c-3.351-1.043-6.628-2.254-9.902-3.52-2.231-.645-2.231-.645-4.91 1.645v-4a415 415 0 0 0-4.687-2l-2.637-1.125c-2.733-.894-4.823-1.04-7.676-.875l-.812-1.937c-1.075-2.394-1.075-2.394-4.188-3.063l-2 2-1.14-2.309c-2.23-3.227-4.066-4.139-7.61-5.754-4.555-2.139-8.92-4.378-13.25-6.937v2l-4-1-.262-1.82c-.947-2.798-2.074-3.502-4.55-5.055l-2.083-1.367c-2.121-1.039-2.121-1.039-4.18.172L275 880l-3-1 1-4-1.59-1.11q-3.345-2.338-6.685-4.683-2.838-1.983-5.682-3.957c-7.011-4.89-13.948-9.84-20.668-15.125l-1.749-1.375a144 144 0 0 1-8.689-7.5c-2.71-2.574-2.71-2.574-5.875-2.125L220 840l1-4-1.338-1.247c-9.581-8.936-19.025-17.978-28.228-27.304a650 650 0 0 0-4.055-4.05 204 204 0 0 1-6.691-7.087l-2.114-2.324C177 792 177 792 177 790l-3-1c-1.586-1.687-1.586-1.687-3.375-4l-2.094-2.691L166 779l-3.344-4.34a3268 3268 0 0 1-6.898-9l-1.465-1.918c-1.147-1.545-2.225-3.14-3.293-4.742-2.06-.724-2.06-.724-4-1l1-2-1.937-1.75c-2.145-2.34-2.413-3.278-3.063-6.25-1.284-2.268-1.284-2.268-3-4h-3c-1-3-1-3-1-7-.988-1.93-.988-1.93-2.375-3.687l-1.336-1.825c-1.24-1.623-1.24-1.623-3.289-2.488l1-2c-.87-2.013-.87-2.013-2.246-4.227l-1.526-2.602c-.55-.923-1.1-1.845-1.665-2.796-3.771-6.463-7.491-12.918-10.813-19.625l-.947-1.902a265 265 0 0 1-4.858-10.508l-1.05-2.353a203 203 0 0 1-1.931-4.494c-1.688-3.794-2.535-5.23-6.206-7.473L96 670l1.637-1.617c1.724-2.378 1.724-2.378.633-5.328l-1.457-3.18-1.418-3.195c-1.257-2.742-1.257-2.742-3.395-4.68h2l-1-1.812C92 648 92 648 92 645l-2-1c-.702-2.01-.702-2.01-1.36-4.684a287 287 0 0 0-3.656-12.976C76.477 598.31 67.504 567.484 68 538l-2-1-.031-2.485q-.147-11.588-.308-23.176-.084-5.957-.158-11.914-.072-5.748-.156-11.496-.031-2.195-.056-4.389a1709 1709 0 0 0-.086-6.14c-.015-1.167-.03-2.332-.047-3.534-.036-2.938-.036-2.938-1.158-5.866.438-2.187.438-2.187 1-4l1 1a34609 34609 0 0 0 2.788-22.729q.511-4.162 1.02-8.326l.316-2.56a522 522 0 0 0 1.628-15.203c.355-3.122 1.073-6.084 1.873-9.12l1.094-4.175.617-2.33c.738-2.84 1.436-5.688 2.133-8.537A497 497 0 0 1 100 323l-1-1-2 2v-4h5a136 136 0 0 0 3-7l-1-2h3l.734-2.488c1.49-4.132 3.426-7.846 5.516-11.7l1.233-2.295q1.215-2.258 2.434-4.512a550 550 0 0 0 2.587-4.857c7.281-13.693 15.346-26.974 24.487-39.504 2.265-3.112 4.343-6.168 6.165-9.562C152 233 152 233 155 232a62 62 0 0 0 2-4c1.008-1.4 2.053-2.774 3.125-4.125l1.902-2.398L164 219l1.816-2.352c4.469-5.727 9.253-11.079 14.236-16.358 2.8-2.906 2.8-2.906 4.948-6.29h2l.787-1.772c1.3-2.387 2.703-3.961 4.627-5.873l2.059-2.052 2.152-2.115 2.082-2.08a246 246 0 0 1 12.507-11.565c2.237-1.932 4.417-3.924 6.599-5.918 6.094-5.502 12.45-10.667 18.886-15.762 2.318-1.81 2.318-1.81 4.301-3.863 1.256-.876 2.53-1.727 3.813-2.562a694 694 0 0 0 11.937-8.063l3.234-2.227a111 111 0 0 0 5.61-4.257c2.317-1.821 4.546-3.16 7.156-4.516a272 272 0 0 0 12.028-6.808A452 452 0 0 1 307 102.125l2.605-1.37C324.525 93 324.525 93 328 93v-3l3 1c2.84-1.06 5.553-2.194 8.313-3.437 67.864-29.481 141.744-37.29 214.996-32M614 65l4 1Zm-174.437 38.25-3.315.636C369.296 117.089 307.233 145.99 255 190l-1.567 1.31C213.406 224.809 180.457 264.842 156 311l-1.323 2.477C134.194 352.105 121.209 394.795 115 438l-.417 2.864c-2.546 18.006-3.022 35.805-2.906 53.945.014 2.852.009 5.703.004 8.555-.02 14.976.221 29.783 2.319 44.636l.426 3.21c10.263 73.235 40.446 143.333 88.069 199.997a642 642 0 0 1 4.235 5.11C226.217 779.88 248.675 800.528 273 819l1.965 1.502c12.176 9.248 25.022 17.174 38.228 24.862a758 758 0 0 1 7.045 4.163c56.051 33.051 123.975 48.903 188.643 48.789 3.719-.003 7.436.02 11.154.045 22.645.062 44.84-2.09 67.028-6.611l2.28-.455c62.299-12.474 120.569-39.11 170.089-79.03 1.481-1.195 2.97-2.38 4.459-3.566 5.999-4.825 11.697-9.91 17.336-15.144a239 239 0 0 1 6.836-6.055c7.238-6.289 13.992-13.202 20.21-20.496 1.944-2.256 3.96-4.438 5.977-6.629C824.774 748.677 833.954 735.854 843 723l1.355-1.925c10.596-15.168 19.672-31.39 27.67-48.062a471 471 0 0 1 3.112-6.275C903.05 610.451 914.592 546.5 913 484l-.063-3.013c-.304-13.236-1.62-26.22-3.547-39.316a572 572 0 0 1-1.007-7.288C903.304 397.647 891.517 361.6 876 328l-1.29-2.797c-10.378-22.194-23-43.607-37.71-63.203l-1.302-1.753C826.789 248.284 817.087 236.98 807 226l-1.623-1.776c-8.757-9.677-8.757-9.677-18.346-18.505-2.111-1.787-4.126-3.661-6.142-5.553-70.322-65.763-169.165-102.374-268.494-102.482-3.628.003-7.255-.02-10.883-.045-20.818-.057-41.498 1.608-61.95 5.611M942 377l1 2ZM100 668l1 2Zm174 207v2l3-1z" fill="#30215c"/><path d="M504.598 97.74c3.699.01 7.397 0 11.095-.013 19.158-.012 38.147.906 57.057 4.148l3.153.526C635.253 112.486 691.522 134.548 741 169l2.115 1.471C758.195 181.023 772.516 192.465 786 205l1.856 1.708q3.172 2.92 6.332 5.855l2.017 1.859c3.98 3.714 7.643 7.577 11.185 11.71 2.213 2.567 4.54 5.023 6.86 7.493 5.994 6.486 11.415 13.343 16.75 20.375l1.637 2.137C874.022 310.292 901.326 376.352 910 444l.292 2.176c1.66 12.571 2.384 25.152 2.708 37.824l.087 3.261c.457 20.078-.844 39.81-3.087 59.739l-.406 3.617C904.867 590.682 892.418 630.67 875 667l-1.125 2.354c-2.21 4.593-4.518 9.128-6.875 13.646l-1.918 3.742C849.514 716.82 828.782 744.063 806 769l-2.687 2.969C795.295 780.804 787.077 789.248 778 797q-1.509 1.32-3.016 2.645c-8.39 7.332-17.07 14.212-26.001 20.874a659 659 0 0 0-5.19 3.926C690.355 864.104 626.521 887.005 561 896l-2.015.283c-13.865 1.884-27.684 2.057-41.66 2.033-3.726-.003-7.45.02-11.175.045-23.048.063-45.75-1.993-68.337-6.611l-2.277-.454C421.816 888.55 408.357 885.187 395 881l-3.305-1.023C369.953 873.19 349.14 864.635 329 854l-2.51-1.32C307.26 842.523 289.166 831.36 272 818l-3.754-2.883c-6.23-4.809-12.241-9.76-18.039-15.09a235 235 0 0 0-5.894-5.214c-14.425-12.626-28.14-25.981-40.083-41.012a236 236 0 0 0-4.742-5.758C183.865 729.481 170.627 708.245 159 687l-2.117-3.781c-21.083-38.078-33.964-81.148-41.195-123.906l-.447-2.635c-.458-2.888-.856-5.78-1.241-8.678l-.537-3.805c-1.855-14.275-1.804-28.603-1.779-42.971q.007-4.267-.02-8.535c-.117-18.417.693-36.428 3.336-54.689l.439-3.098C120.77 397.59 131.915 361.074 148 327c.455-.968.91-1.936 1.377-2.934C161.988 297.452 177.758 273.068 196 250l2.129-2.719c5.54-6.937 11.55-13.376 17.637-19.828 2.43-2.58 4.8-5.2 7.109-7.89 5.227-6.053 10.952-11.525 17.016-16.731 2.285-1.985 4.506-4.032 6.734-6.082 5.65-5.096 11.604-9.752 17.625-14.395a493 493 0 0 0 4.902-3.855c12.92-10.166 26.712-19.161 40.936-27.394a623 623 0 0 0 3.859-2.252C371.28 115.218 438.25 97.512 504.598 97.74M386 132l-2.47.817C352.95 143.005 323.636 157.907 297 176l-2.128 1.44C284.127 184.76 273.955 192.645 264 201l-1.815 1.515c-14.072 11.77-28.147 24.11-40.1 38.063a380 380 0 0 1-4.92 5.594C185.38 281.877 162.204 324.213 146 369l-.897 2.437c-14.276 39.041-20.314 81.565-20.353 123l-.004 2.563c.005 15.386.99 30.443 2.861 45.72.346 2.89.64 5.78.909 8.678C133.957 604.626 156.14 659.423 185 704l1.125 1.748C205.556 735.822 229.549 764.876 257 788l2.781 2.41c55.563 47.954 124.286 80.039 197.105 90.152q3.028.425 6.049.896C506.865 888.274 553.83 885.22 597 875l3.24-.761c73.808-17.613 136.862-55.611 190.448-108.739l2.664-2.625c5.986-5.979 11.368-12.27 16.648-18.875a560 560 0 0 1 3.16-3.73c9.63-11.402 17.796-23.715 25.84-36.27l1.39-2.168C847.7 690.324 853.846 678.151 860 666l1.333-2.601C881.185 624.45 892.625 581.352 897 538l.32-3.116c9.83-98.737-18.911-200.454-81.785-277.683-3.124-3.782-6.316-7.5-9.535-11.201l-1.855-2.16c-11.237-12.998-22.838-25.877-36.325-36.578-2.485-1.994-4.898-4.05-7.301-6.142-18.924-16.391-40.347-30.19-62.393-41.974a379 379 0 0 1-6.044-3.341C648.59 131.629 596.497 116.774 547 113l-3.31-.259c-11.457-.81-22.894-.984-34.377-.991l-2.995-.002c-41.076.044-81.41 7.063-120.318 20.252" fill="#f7d247"/><path d="M418 293c1.79.233 3.571.547 5.344.89l3.426.648 3.73.712c24.464 4.49 48.518 6.236 73.5 7.75v79H403c0-9.486.579-18.556 1.625-27.937l.262-2.377c5.745-51.318 5.745-51.318 13.113-58.686" fill="#30205b"/><path d="M306 397h82l3 38c1.852 13.395 4.086 26.379 7.425 39.457l.622 2.438.557 2.12C400 481 400 481 400 485c-40.339 8.248-40.339 8.248-56 9l-2.42.137-2.44.086-2.213.09C335 494 335 494 332.437 491a187 187 0 0 1-2.437-5l-1.762-3.215C317.96 463.821 311.773 443.155 308 422l-.394-2.176C306.228 411.98 306 405.107 306 397" fill="#2f205b"/><path d="M572.813 654.688C581.88 661.343 589 670.712 591 682c.818 15.132-.682 27.689-11.191 39.453-9.323 9.038-21.238 13.418-34.121 13.86-12.08-.303-23.077-4.296-32.079-12.489-9.668-10.367-12.145-21.075-11.922-35.039.783-9.475 4.442-17.4 10.313-24.785.478-.615.956-1.23 1.45-1.863 14.506-16.48 41.451-17.385 59.362-6.45" fill="#f7d347"/><path d="M519 189c14.088 3.522 14.088 3.522 20.063 6.625l2.049 1.05c6.306 3.346 11.66 7.463 16.888 12.325l2.543 2.336C578.115 228.172 592.347 251.893 600 275v4c-11.38 2.628-22.837 4.542-34.425 5.983a495 495 0 0 0-4.145.535C547.16 287.408 533.597 287 519 287z" fill="#30205b"/><path d="M504 190v97c-27.81 0-27.81 0-38-1.25l-3.48-.4c-32.168-3.838-32.168-3.838-39.52-7.35 7.306-23.54 20.464-45.663 38-63l2.531-2.543L466 210l2.184-2.176C477.763 198.744 490.388 190 504 190" fill="#2f205b"/><path d="M600 649a2794 2794 0 0 1 18.085-.165q3.067-.022 6.135-.061c30.061-.375 30.061-.375 38.78 7.226 4.384 4.635 6.709 9.46 7.438 15.813-.351 7.237-3.057 13.343-8.375 18.25-2.953 2.494-5.235 3.398-9.063 3.937a390 390 0 0 0 6 11l1.251 2.223a588 588 0 0 0 4.187 7.215l1.339 2.366c3.707 6.217 7.276 8.88 14.223 11.196v5c-3.417.058-6.833.094-10.25.125l-2.934.05-2.832.02-2.602.032c-2.6-.248-4.173-.858-6.382-2.227-1.5-1.863-1.5-1.863-3-4.312l-1.828-2.918c-1.771-2.98-3.341-6.04-4.906-9.133l-1.504-2.868a176 176 0 0 1-2.883-5.77c-1.443-2.726-2.67-4.842-4.879-6.999-3.723-1.094-7.141-1.227-11-1 .11 3.73.24 7.459.375 11.188.03 1.055.062 2.11.094 3.197l.117 3.095.095 2.841c.348 2.925.925 5.081 2.319 7.679 3.535 1.38 3.535 1.38 7 2v5h-35v-5l3.438-1.312L607 725c1.073-3.218 1.146-5.584 1.177-8.969l.039-3.721q.012-2.012.022-4.025l.013-2.05q.03-5.365.044-10.73c.011-3.694.046-7.387.085-11.08.026-2.843.035-5.685.038-8.527q.008-2.042.035-4.085c.025-1.905.021-3.81.017-5.715l.018-3.283c-.606-3.496-1.761-4.623-4.488-6.815-2.133-1.235-2.133-1.235-4-2z" fill="#f7d248"/><path d="M519 507c23.59 1.18 23.59 1.18 34.188 2.688l3.658.508c12.244 1.8 24.202 4.63 36.154 7.804-4.679 12.045-11.876 23.017-20 33l-1.387 1.71C557.477 570.028 541.733 582.56 521 591h-2z" fill="#30205b"/><path d="M504 508v83c-32.2-9.66-52.273-35.134-69-63l-1.395-2.312C431 521.268 431 521.268 431 519c11.18-3.272 22.395-5.76 33.875-7.75l3.632-.637C480.465 508.6 491.846 508 504 508" fill="#2f1f5b"/><path d="m291 400 .262 3.715C293.692 434.83 301.708 464.213 316 492l1 2c-20.055 1.217-42.839-3.774-59-16l-2.594-1.945c-7.188-6.138-9.848-13.572-10.781-22.743.514-15.427 10.024-27.774 20.375-38.312l1.637-1.676C272.23 408.097 283.284 400 291 400" fill="#2f205b"/><path d="M556.797 657.832c8.2 4.347 12.433 11.902 15.281 20.375 2.979 12.255 1.698 26.117-4.398 37.191-3.905 5.74-9.119 9.415-15.68 11.602-8.319.768-14.988-.466-21.687-5.562-6.714-6.162-10.2-15.944-10.649-24.891a233 233 0 0 1-.039-4.797l.005-2.536c.21-10.683 3.667-18.727 10.62-26.839 8.101-6.996 16.496-8.286 26.547-4.543" fill="#2f1f5b"/><path d="m458 197-2.492 2.387c-20.322 19.72-36.396 44.676-45.738 71.48C409 273 409 273 408 274c-6.356-.448-11.992-2.07-18-4.125l-2.755-.928C378.95 266.094 370.95 262.699 363 259v-2h2l.807-1.79c1.22-2.26 2.477-3.752 4.283-5.565l1.859-1.872 1.988-1.96 2.06-2.037c5.406-5.292 10.948-10.23 17.003-14.776l1.769-1.345c49.642-37.45 49.642-37.45 63.231-30.655m108-1c7.316 1.38 13.84 3.728 20.688 6.625l3.212 1.353c25.966 11.133 54.21 30.186 70.1 54.022-8.65 5.19-17.653 9.007-27.187 12.25l-2.267.783c-4.862 1.61-9.446 2.482-14.546 2.967l-.812-2.027A586 586 0 0 0 611 262l-.812-1.898c-9.96-22.964-23.731-43.31-41.731-60.653L566 197z" fill="#2e1f5a"/><path d="M771 652v20h-6l-.734-2.3-1.016-3.013-.984-2.988c-1.39-2.965-2.476-4.054-5.266-5.699-3.175-1.058-5.54-1.167-8.875-1.187l-3.117-.043c-3.1.237-5.244.829-8.008 2.23-2.5 3.75-2.089 7.406-1.777 11.719 1.462 4.29 4.202 6.466 8.103 8.485 3.737 1.674 7.514 3.238 11.307 4.782C763.33 687.71 770.399 692.541 775 701c2.309 6.98 1.668 14.374-1.61 20.895-4.178 6.326-10.08 10.298-17.39 12.105-13.362 2.56-25.3.233-38-4v-22h6l.7 2.012c2.225 6.025 4.157 10.796 10.116 13.949 5.442 2.321 10.667 3.213 16.36 1.312 4.286-1.927 7.088-3.716 8.824-8.273.617-4.14.043-6.974-2.365-10.437-4.5-4.303-11.454-6.01-17.153-8.243-8.544-3.505-15.333-7.57-20.517-15.39-2.18-6.62-2.308-14.91.535-21.367 3.545-5.817 9.37-11.068 15.93-13.125 12.164-2.071 22.955-.047 34.57 3.562" fill="#f7d347"/><path d="m403 651 2.1.831c2.415 1.176 4.072 2.19 5.9 4.169.987 3.81.76 7.409.5 11.313l-.11 3.11c-.093 2.53-.225 5.052-.39 7.577h-7l-.297-1.977c-1.04-6.08-2.078-11.395-7.379-15.238-6.232-3.75-12.16-4.648-19.324-3.785-7.243 2.11-11.372 5.943-15.527 12.11-3.657 7.177-5.008 13.736-4.91 21.765l.022 2.655c.26 10.23 3.067 19.07 10.415 26.47 6.47 4.827 13.13 5.792 21 5 7.316-1.829 12.852-5.542 18-11l1-2c3.479 1.392 4.48 2.633 6 6-6.189 8.476-15.355 15.271-26 17-13.934.746-24.744-.92-36.043-9.562-7.698-7.07-12.756-17.422-13.293-27.856-.281-14.683 1.892-26.492 12.336-37.582 14.646-12.507 34.752-16.436 53-9" fill="#f8d447"/><path d="M208 649h35v5l-7 3c.504 6.228 1.579 11.447 3.836 17.254l.848 2.258a1188 1188 0 0 0 2.691 7.05l1.79 4.733q1.65 4.366 3.317 8.727l.752 1.978a434 434 0 0 0 1.626 4.179C253 708.675 253 708.675 253 712h2l.352-2.593c.67-3.524 1.713-6.574 3.011-9.915l.707-1.838q1.115-2.893 2.243-5.779C268.738 675.43 268.738 675.43 271 658l-8-4v-5h29v5l-2.875.625L286 656c-1.083 2.726-1.083 2.726-2 6a450 450 0 0 1-3.02 7.3l-1.831 4.357-.97 2.3a1828 1828 0 0 0-18.229 44.958l-.789 2.02q-1.048 2.69-2.092 5.38C256 731 256 731 255 733h-10a25153 25153 0 0 1-6.358-16.108 3276 3276 0 0 1-10.962-28.107l-3.243-8.402a1886 1886 0 0 1-2.113-5.514c-.989-2.592-1.988-5.18-2.988-7.767l-.889-2.354c-1.911-4.907-3.266-7.784-8.135-9.936L208 654z" fill="#f6d247"/><path d="M421 649h76v24h-6l-.77-2.082-1.043-2.73-1.019-2.708c-1.151-2.445-2.072-3.806-4.168-5.48-3.467-1.156-6.541-1.328-10.187-1.562l-3.856-.254L467 658q.126 12.192.288 24.383.076 5.662.134 11.323.056 5.466.136 10.932.028 2.083.045 4.166c.017 1.948.047 3.897.078 5.845l.04 3.358c.288 3.086.812 5.265 2.279 7.993 3.03 1.372 3.03 1.372 6 2v5h-35v-5l1.715-.55 2.223-.763 2.214-.738c2.207-.861 2.207-.861 2.848-3.949.117-2.07.177-4.143.205-6.216l.06-3.882q.027-2.097.051-4.195l.063-4.292q.082-5.645.153-11.289.077-5.761.161-11.522.162-11.303.307-22.604c-2.566.033-5.123.1-7.687.188l-2.186.017c-4.146.17-5.73.47-9.061 3.192-1.94 2.444-3.217 4.534-4.378 7.415l-.989 2.395L426 673h-5z" fill="#f7d247"/><path d="M415 524c3.342 3.903 5.716 7.941 8.125 12.438C433.325 554.953 446.938 570.31 462 585q2.005 1.995 4 4c-29.524-6.157-55.597-18.255-79.5-36.687l-1.783-1.37c-3.405-2.686-6.128-5.42-8.717-8.943 12.679-7 25.45-12.888 39-18" fill="#2d1e5a"/><path d="M608 523c13.214 3.63 25.65 9.127 38 15-9.622 21.068-44.706 36.557-65.124 44.264-7.826 2.85-15.74 4.987-23.876 6.736a516 516 0 0 1 8.75-8.61c17.622-17.076 30.472-35.964 42.25-57.39" fill="#2e1f5a"/><path d="M297 649h34v5l-8 4q-.106 12.634-.155 25.27c-.016 3.91-.037 7.822-.071 11.733-.033 3.773-.05 7.547-.059 11.32q-.008 2.162-.032 4.322a570 570 0 0 0-.024 6.048l-.02 3.479c.125 2.822.125 2.822 1.714 4.648 2.088 1.496 4.232 2.331 6.647 3.18v5h-34v-5l7-2q.07-13.248.104-26.495.014-6.15.047-12.301.032-5.933.039-11.866.004-2.267.021-4.533c.015-2.112.017-4.224.016-6.336l.014-3.647c.053-2.958.053-2.958-2.241-4.822a104 104 0 0 0-5-2z" fill="#f4cf48"/><path d="M734.688 255.625c4.273 4.39 6.017 9.308 6.875 15.313-.395 6.175-3.203 11.635-7.477 16.03-5.156 3.975-9.774 4.842-16.215 4.489-5.488-.874-9.224-2.855-13.183-6.707-3.5-5.703-5.428-10.964-4.688-17.75 2.095-7.334 6.955-11.615 13.438-15.437 8.147-1.789 14.118-.25 21.25 4.062m-106 115.625c6.36 3.36 10.109 6.845 12.312 13.75.878 6.233.296 11.542-3 17-5.237 5.444-9.063 8.127-16.75 8.313-5.738-.056-8.714-.817-13.25-4.313-5.359-5.793-6.475-10.18-6.305-17.96.546-5.442 2.211-9.115 6.246-12.825 6.63-5.165 12.646-6.71 20.746-3.965" fill="#2e1f5a"/><path d="M301.688 280.25c5.744 3.035 10.13 6.424 12.312 12.75.908 6.145.541 11.77-2.594 17.21-3.435 4.371-7.883 7.79-13.406 8.79-6.34.528-10.755-.27-16-4-5.177-5.043-7.165-8.383-7.312-15.687.069-6.176.293-9.591 4.312-14.313 7.102-5.444 13.983-7.7 22.688-4.75" fill="#2e1e5b"/><path d="M761.582 466.059c5.32 3.255 8.691 6.892 10.418 12.941.823 6.484-.55 11.436-4 17-4.162 4.698-8.647 6.769-14.812 7.375-5.375-.162-9.867-2.175-13.766-5.871-5.2-5.992-4.956-11.918-4.422-19.504 1.717-5.452 5.396-8.788 10-12 5.447-1.816 11.203-2.147 16.582.059" fill="#2e1e5a"/><path d="m406 500 3 10c-5.9 3.032-11.882 5.693-18 8.25-9.2 3.887-18.139 8.15-27 12.75-6.511-6.104-12.1-12.523-17-20v-1l3.003-.487q6.906-1.125 13.81-2.263l2.494-.41c10.187-1.686 20.34-3.42 30.411-5.722 3.234-.734 5.932-1.118 9.282-1.118" fill="#2e1f5a"/><path d="M625 657c16.812 0 16.812 0 22 4 3.87 4.12 4.3 8.209 4.21 13.652-.326 3.64-1.364 6.21-3.21 9.348-7.595 6.14-12.634 5-23 5z" fill="#31215a"/><path d="m519 303 3 2c.36 3.05.36 3.05.34 7.02l.002 2.188a802 802 0 0 1-.049 7.175q-.009 2.484-.013 4.969c-.011 4.363-.04 8.726-.074 13.089-.036 5.233-.05 10.466-.067 15.699-.03 7.953-.087 15.906-.139 23.86h52v3h-55z" fill="#432e57"/><path d="m519 189 4 2-1 94 15 1v1h-18z" fill="#392957"/><path d="M798 716c2.7 1.8 4.542 3.084 6 6 .599 5.269-.746 7.885-4 12-3.139 1.57-5.539 1.352-9 1-2.914-1.984-4.636-3.414-5.445-6.937-.218-3.84.213-5.7 2.32-9 3.348-3.25 5.502-3.516 10.125-3.063" fill="#f7d547"/><path d="m519 507 13 1v1h-11l1 79 3-1v2l-6 2z" fill="#372858"/><path d="M572 382h2v15h-55v-3h52v-10z" fill="#eec947"/><path d="M669 382h43v1c-4.773.949-9.395 1.132-14.242 1.098l-2.329-.005c-2.434-.005-4.87-.018-7.304-.03q-2.488-.009-4.977-.014-6.075-.017-12.148-.049v11h41v1h-43z" fill="#f9ec46"/><path d="m421 649 73 1v1h-71v13c-.271 2.341-.569 4.683-1 7 3.075-.776 3.075-.776 5-3l-1 5h-5z" fill="#fefd43"/><path d="m496.945 53.902 2.682.005c2.833.005 5.665.018 8.498.03l5.754.014q7.06.017 14.121.049v1l-8 1v1h-44v-1c1.048-.09 1.048-.09 2.117-.184l2.758-.254c.905-.08 1.81-.162 2.742-.246 10.765-1.429 10.765-1.429 13.328-1.414" fill="#42316c"/><path d="M306 370h1v6h2v3h78v1h-80c-1.607-3.215-1.057-6.436-1-10" fill="#402d59"/><path d="M425 539c2.892 2.712 4.94 5.336 6.938 8.75 8.27 13.227 18.867 24.48 30.062 35.25a933 933 0 0 1 4 4c-3.62-1.267-6.02-2.63-8.75-5.316l-2.075-2.041-2.175-2.206-2.263-2.281C425 548.705 425 548.705 425 539" fill="#f4e845"/><path d="M362 509v1l-12 1c4.47 6.526 8.715 12.155 15 17 3.122-1.309 3.122-1.309 5-4 2.363-1.035 2.363-1.035 5.313-2.062l2.925-1.036A78 78 0 0 1 385 519c-2.145 2.333-4.203 3.805-7.012 5.262l-2.295 1.2-2.38 1.226A1325 1325 0 0 1 365 531c-4.38-3.584-8.252-7.198-11.814-11.626l-2.269-2.79c-1.602-2.16-2.832-4.137-3.918-6.585 5.05-1.036 9.874-1.103 15-1" fill="#0e0859"/><path d="M125 476h3v39h-3z" fill="#3f2b56"/><path d="M625 698h2v2h9l1 4-2-1v-2h-7c.01.595.02 1.19.032 1.804.041 2.69.067 5.38.093 8.071l.05 2.84.02 2.715.032 2.507C628 721 628 721 626 723c-1.279-2.557-1.113-4.367-1.098-7.227l.01-3.125.025-3.273.014-3.297q.018-4.039.049-8.078" fill="#3e2d58"/><path d="M441 728h2v2l32-1v4h-34z" fill="#e0b647"/><path d="M458 197c-3.887 3.18-7.9 6.106-12 9v-2c-6.61.49-11.95 2.334-18 5v-2q4.466-1.913 8.938-3.812l2.517-1.08c15.56-6.6 15.56-6.6 18.545-5.108" fill="#241857"/><path d="M450 939c14.022.733 28.008 1.841 42 3v1c-9.063.102-17.982.07-27-1l1 2h-10v-3l-4-1 1 3-3-1z" fill="#56407d"/><path d="M421 649h8v2h-6l.035 2.598c.047 5.91.047 11.584-1.035 17.402 3.075-.776 3.075-.776 5-3l-1 5h-5z" fill="#faeb47"/><path d="m822 752 2 2c-5.148 5.253-10.339 10.302-16 15l-2-1 5.875-6.375 1.684-1.828 1.62-1.758c.74-.801.74-.801 1.492-1.619 3.086-3.299 3.086-3.299 5.329-4.42" fill="#221658"/><path d="M311 895c6.306 1.11 11.375 2.932 17 6v2l-7 1-.812-1.937c-1.075-2.394-1.075-2.394-4.188-3.063l-2 2c-3-4.875-3-4.875-3-6" fill="#37265d"/><path d="m68 511 2 1v19h-1l-1 7-2-1z" fill="#3d2c68"/><path d="M309 353h1q.04 3.78.063 7.563l.025 2.134c.02 4.543-.34 8.82-1.088 13.303h-2c-.205-8-.135-15.261 2-23" fill="#1e145a"/><path d="M227 236c0 3 0 3-1.277 4.465l-3.313 2.937c-1.642 1.861-1.846 3.217-2.41 5.598-2.562 2.75-2.562 2.75-5 5l-3-1c4.395-6.325 9.45-11.672 15-17" fill="#1b115b"/><path d="M68 524h1c.342 3.124.672 6.25 1 9.375l.29 2.637c.623 6.018.827 11.939.71 17.988h-1v-7h-2z" fill="#211543"/><path d="M502 479h1l-.035 2.555c-.01 1.095-.018 2.191-.027 3.32l-.036 3.305c-.1 2.772-.1 2.772 1.098 4.82q-3.124.079-6.25.125l-3.516.07c-3.062-.185-4.676-.587-7.234-2.195v-1h15z" fill="#3e2b57"/><path d="m566 580 2 1-3 4 1.828-.691 2.422-.871 2.39-.88c2.551-.603 3.913-.405 6.36.442q-3.843 1.224-7.687 2.438l-2.186.697c-3.689 1.162-7.307 2.21-11.127 2.865z" fill="#10095a"/><path d="m273 329 2 .813 3 1.187 3.625 1.563c4.99 1.892 10.085 2.155 15.375 2.437l-1 5-1-3-2.055-.043c-7.202-.37-12.884-1.954-18.945-5.957z" fill="#120959"/><path d="M631 335h1l1 8h-16v-6l1 4h13z" fill="#f7e648"/><path d="M754 180c3.621 1.29 6.268 2.79 9.207 5.258l2.275 1.894 2.33 1.973 2.39 1.996q2.906 2.43 5.798 4.879l-1 2-2.562-2.195c-7.476-6.4-7.476-6.4-15.25-12.43L754 181z" fill="#f3e446"/><path d="M312 488h2l3 6c-7.29.25-13.907-.277-21-2v-1h17z" fill="#191058"/><path d="M907 292c2.55 3.179 4.412 6.493 6.25 10.125l1.64 3.195L916 308l-1 2c-3.163-2.658-4.541-5.851-6.25-9.562l-1.64-3.504L906 294z" fill="#39295e"/><path d="M889 406c2 2 2 2 2.125 4.625L891 413h2c.222 1.456.427 2.915.625 4.375l.352 2.46L894 422l-2 2q-.759-3.091-1.5-6.187l-.844-3.481c-.571-2.9-.789-5.393-.656-8.332" fill="#f8e146"/><path d="M632 436v7l-2-3c-3.108-.805-3.108-.805-6.625-1.187l-3.602-.481L617 438v6h-2l1-7 9.58-.645c5.307-.355 5.307-.355 6.42-.355" fill="#e1c94b"/><path d="m383 519 2 1-17 9-1-2c2.48-2.943 4.953-3.904 8.563-5.125 3.788-1.272 3.788-1.272 7.437-2.875" fill="#1e1359"/><path d="m400 69-6 1v2h-4v2l-8-1c2.93-1.953 5.081-2.754 8.438-3.687l2.87-.825c2.681-.486 4.155-.382 6.692.512m-16 5 3 1Z" fill="#4c3973"/><path d="M264 651h24v1l-1.68.06c-2.524.096-5.047.205-7.57.315-.873.03-1.745.062-2.645.094l-2.558.117-2.349.095c-2.407.35-4.094 1.125-6.198 2.319z" fill="#efc247"/><path d="M931 346c2.496 2.496 3.076 4.66 4.188 8l1.105 3.25C937 360 937 360 936 362c-4.143-4.897-5.302-9.654-5-16" fill="#3e2d63"/><path d="M635 926c-3.146 2.097-5.015 2.52-8.687 3.125l-3.012.508L621 930l-1-2a303 303 0 0 1 4.688-1.562l2.636-.88c2.922-.61 4.82-.335 7.676.442" fill="#3e2c65"/><path d="m418 293 10 2v1h-9l-3 9h-1c.481-4.814.8-7.602 3-12" fill="#100a58"/><path d="M781 202c3.9 1.615 6.713 4.28 9.75 7.125l1.535 1.418A950 950 0 0 1 796 214l-2 2q-3.254-3.215-6.5-6.437l-1.879-1.854-1.777-1.768-1.65-1.634C781 203 781 203 781 202" fill="#f5e746"/><path d="M450 938c-4.87 4-4.87 4-8 4-2.75-2.437-2.75-2.437-5-5 4.944-1.206 8.209-.63 13 1" fill="#48346f"/><path d="m573 299 1 3h-7v1h-6v-3c4.085-.545 7.873-1 12-1" fill="#392756"/><path d="M451 584c1.75.06 3.5.15 5.25.25l2.953.14c3.375.736 4.608 2.005 6.797 4.61q-3.19-.676-6.375-1.375l-3.586-.773C453 586 453 586 451 584" fill="#1e1457"/><path d="M746 120c4.11 1.45 7.433 3.511 11 6-3 1.27-4.052.98-7.187-.187-2.813-1.813-2.813-1.813-3.688-4z" fill="#3b2a61"/><path d="M714 102c9.86 2.79 9.86 2.79 12 6-8-.923-8-.923-11-3z" fill="#3d2c63"/><path d="M94 647c2.038 2.038 2.678 3.294 3.688 5.938l.824 2.09C99 657 99 657 98 660v-2h-2l-.875-1.875c-1.062-2.258-1.062-2.258-3.125-4.125h2z" fill="#2d1f51"/><path d="M422 500h11c-3.08 3.672-5.248 4.568-10 5z" fill="#281b58"/><path d="m750 801 2 1c-2.383 3.15-4.55 5.997-8 8l-3-1c2.853-2.932 5.65-5.643 9-8" fill="#f5e145"/><path d="M126 462h3v11l-2 1c-.96-2.882-1.106-4.699-1.062-7.687l.027-2.45z" fill="#3a2657"/><path d="m635 569 2 1c-2.575 4.806-7.188 6.103-12 8v-2c2.188-1.727 2.188-1.727 5-3.625l2.813-1.914z" fill="#170e5a"/><path d="M64 472h1v24h-1z" fill="#39285e"/><path d="M887 260c4.065 1.355 4.973 3.308 7 7-.39 2.2-.39 2.2-1 4a783 783 0 0 1-3-4.375l-1.687-2.46C887 262 887 262 887 260" fill="#2d1f50"/><path d="M146 243h3c0 3 0 3-1.812 5.188C145 250 145 250 142 250a56.5 56.5 0 0 1 4-7" fill="#3d2c66"/><path d="M538 113h9l1 3h-12l2-1z" fill="#3b2856"/><path d="m676 727 2 4h-18v-1l3.246-.148 4.192-.227c.707-.03 1.414-.062 2.142-.094 1.812-.104 3.618-.31 5.42-.531z" fill="#efc248"/><path d="M295 352h1v5h-1zm-3 5h3v7l-2 1c-1.354-2.709-1.065-5.01-1-8" fill="#e6c148"/><path d="M395 316h3l-1 8h-3z" fill="#ebcc47"/><path d="m679.625 910.438 2.477.308L684 911c-2.906.74-5.822 1.417-8.75 2.063l-2.422.535L671 914l2-1v-2c2.52-1.26 3.854-.919 6.625-.562" fill="#45336c"/><path d="m538.066 283.902 2.496.036 2.504.027L545 284l1 3q-2.187.079-4.375.125l-2.46.07C537 287 537 287 535 285c1-1 1-1 3.066-1.098" fill="#3e2a58"/><path d="M539 170v2l4 1c-9.41.185-9.41.185-14-1v-1c6.625-1 6.625-1 10-1" fill="#140c59"/><path d="M674 84c4.389.665 7.981 2.188 12 4v1c-8.35-.35-8.35-.35-11.062-3.062z" fill="#47356c"/><path d="m607 933-1 3-9-1v-2c3.576-1.238 6.337-.75 10 0" fill="#402e67"/><path d="M667 913c2.125.938 2.125.938 4 2l-1.937.875c-2.215.953-2.215.953-3.063 3.125l-6-1 2-2h3v-2z" fill="#48366f"/><path d="m311 895 7 1 1 3h-3l-2 2c-3-4.875-3-4.875-3-6" fill="#3e2d65"/><path d="m353 273 5 2-1.687.75c-2.713 1.466-4.949 3.28-7.313 5.25 1.125-2.972 2.223-5.334 4-8" fill="#392759"/><path d="m292 110 2 1c-3.08 3.672-5.248 4.568-10 5 2.366-2.615 4.86-4.39 8-6" fill="#3f2e62"/><path d="M137 740q2.514.428 5 1l1 5-3-2h-3l-1-3z" fill="#402e63"/><path d="m635 727 2 1v6l-5 1v-2h3z" fill="#1f1259"/><path d="M100 666c1.563 1.813 1.563 1.813 3 4l-1 3-6-3zm0 2 1 2Z" fill="#48356c"/><path d="M933 639h1l-1 9h-2l-1 2q.464-2.188.938-4.375l.527-2.46C932 641 932 641 933 639" fill="#2b1d50"/><path d="M955 544h1c.09 5.152-.153 9.92-1 15h-1l-1-9h2z" fill="#56427c"/><path d="M728 887c-5.143 4.429-5.143 4.429-9 5 1-3 1-3 3.375-4.75C725 886 725 886 728 887" fill="#3d2b64"/><path d="M85 365c2 3 2 3 1.625 5.688L86 373h-2l-1 2c.458-3.47.891-6.674 2-10" fill="#453369"/><path d="m927 339 3 1 1 9c-2.952-2.952-3.087-5.955-4-10" fill="#291b4d"/><path d="M276 309q1.688 1.436 3.375 2.875l1.898 1.617A76 76 0 0 1 285 317c-3 0-3 0-5.625-2.312C277 312 277 312 276 309" fill="#eedc48"/><path d="m456 196 2 1-5 4-4-2a136 136 0 0 1 7-3" fill="#1e1453"/><path d="M429 496c-2.312 2.5-2.312 2.5-5 5h-3c.375-1.937.375-1.937 1-4 2.463-1.231 4.28-1.072 7-1" fill="#372657"/><path d="M78 390c1.176 3.674 1.074 7.17 1 11l-3 1q.214-2.157.438-4.312c.08-.801.162-1.602.246-2.426C77 393 77 393 78 390" fill="#523f78"/><path d="M97 320h6l1 3-3 1-2-2-2 2z" fill="#412f66"/><path d="M903 285c2.5 2.174 3.436 3.73 4 7l-3-1v-2l-3-1c1-2 1-2 2-3" fill="#3f2e64"/><path d="M795 215c3.367 1.393 4.986 2.979 7 6-3 0-3 0-5.187-1.875C795 217 795 217 795 215" fill="#e5cd48"/><path d="m870 760 1 3-5 5c0-3.908 1.506-5.116 4-8" fill="#2b1d50"/><path d="M953 559h1c.37 6.4.37 6.4-1.5 9.438L951 570v-6h2z" fill="#39295f"/><path d="M405 505h3l-1 5-5 1 2-1c.656-2.527.656-2.527 1-5" fill="#372658"/><path d="M453 472c-2.565 2.565-4.477 2.54-8 3v-3c3.29-1.097 4.713-.8 8 0" fill="#ebc948"/><path d="m612 462 2 2c-.25 2.563-.25 2.563-1 5l-2 1c-.125-5.75-.125-5.75 1-8" fill="#f4dd46"/><path d="m619.625 371.438 3.04.308L625 372v1a312 312 0 0 1-4.812.625l-2.708.352C615 374 615 374 612 372c2.728-1.364 4.61-.878 7.625-.562" fill="#392757"/><path d="M311 293h3v3h-2v8h-1z" fill="#392856"/><path d="M415 65v2c-3.695.95-6.305.95-10 0 3.402-2.094 6.053-2.18 10-2" fill="#423165"/><path d="m408 933 5 1-2 2h-3z" fill="#39275d"/><path d="m400 931 7 1v1l-7-1z" fill="#37255c"/><path d="M65 457h1v7c-1.062-1.812-1.062-1.812-2-4z" fill="#3b2a62"/><path d="m304 894 5 1v1h-5z" fill="#38255c"/><path d="M74 589h1v5l-2-1z" fill="#39285f"/><path d="m668 80 6 1-3 1z" fill="#35265b"/><path d="M496 52h7v1h-7z" fill="#3c2a63"/><path d="M193 811h2l-1 3-2-2z" fill="#37265a"/><path d="M65 530h1v6h-1z" fill="#3c2a61"/><path d="M959 526h1v6h-1z" fill="#3b2b62"/><path d="M64 514h1v6h-1z" fill="#402d64"/><path d="M467 943h5v1h-5z" fill="#3a275f"/><path d="m609 934 4 1-3 1z" fill="#39275e"/><path d="m240 853 3 1-1 2z" fill="#39275d"/><path d="m80 616 2 1v2h-2z" fill="#38275c"/><path d="m910 294 2 1-1 3z" fill="#36265a"/><path d="m551 943 4 1Z" fill="#3a295f"/><path d="m385 927 4 1Z" fill="#3a2860"/><path d="m355 917 2 2-2 1z" fill="#37265e"/><path d="m264 870 3 1h-3z" fill="#372559"/><path d="m211 828 2 2-3-1z" fill="#37255a"/><path d="m168 784 2 1-2 2z" fill="#36255b"/><path d="m123 717 2 3h-2z" fill="#37265b"/><path d="m81 621 2 1-1 2z" fill="#3a295e"/><path d="m75 594 1 3-2-1z" fill="#38275f"/><path d="m67 551 1 4Z" fill="#3b2961"/><path d="m958 536 1 4Z" fill="#392860"/><path d="M66 440h2l-1 3z" fill="#3b2961"/><path d="m68 432 1 4Z" fill="#3a2961"/><path d="m81 371 1 3-2-1z" fill="#392a5f"/><path d="m160 218 1 4Z" fill="#38285c"/><path d="m822 175 3 2h-3z" fill="#37265a"/><path d="M245 136h3l-1 2z" fill="#37275b"/><path d="M750 120h3l-1 2z" fill="#36275a"/><path d="m677 83 4 1Z" fill="#37265c"/><path d="m514 52 4 1Z" fill="#3b2a63"/><path d="m569 941 3 1Z" fill="#38265e"/><path d="m383 926 2 1-2 1z" fill="#38275e"/><path d="m232 846 2 2h-2z" fill="#352458"/><path d="m204 821 2 2h-2z" fill="#342359"/><path d="m188 806 2 1-2 1z" fill="#37265b"/><path d="m154 765 2 2h-2z" fill="#342559"/><path d="m881 750 1 2-2-1zm-759-35 1 2-2-1z" fill="#36265b"/><path d="m115 702 1 2-2-1z" fill="#38265a"/><path d="m104 686 2 2h-2z" fill="#37285e"/><path d="M104 682h2l-1 2z" fill="#39285c"/><path d="m122 272 1 2-2-1z" fill="#37275c"/><path d="m148 236 2 1-2 1z" fill="#36255b"/><path d="m798 154 2 1-2 1z" fill="#36265a"/><path d="m232 146 2 1-2 1z" fill="#37265b"/><path d="m709 96 1 2-2-1z" fill="#37265c"/><path d="m645 72 3 1Z" fill="#36275b"/><path d="m392 67 3 1Z" fill="#3a2a5f"/><path d="m578 57 3 1Z" fill="#3a2a60"/><path d="m451 56 3 1Z" fill="#36265c"/><path d="m563 942 2 1Z" fill="#39275f"/><path d="m560 942 2 1Z" fill="#39265f"/><path d="m578 940 2 1Z" fill="#39285f"/><path d="m582 939 2 1Z" fill="#38265f"/><path d="m636 927 2 1Z" fill="#3a295e"/><path d="m380 925 2 1Z" fill="#37275c"/><path d="m361 919 2 1Z" fill="#3c295f"/><path d="m353 916 2 1Z" fill="#3a275e"/><path d="m341 911 2 1Z" fill="#362357"/><path d="m317 900 2 1Z" fill="#342359"/><path d="m256 865 2 1Z" fill="#34255b"/><path d="m251 861 2 1Z" fill="#38265a"/><path d="m200 818 2 1Z" fill="#362459"/><path d="m843 798 2 1Z" fill="#36255a"/><path d="m854 787 2 1Z" fill="#362459"/><path d="m130 733 2 1Z" fill="#37275b"/><path d="m112 699 2 1Z" fill="#39285c"/><path d="m88 649 2 1Z" fill="#39265e"/><path d="m946 605 2 1Z" fill="#38275d"/><path d="m89 345 2 1Z" fill="#3b2a60"/><path d="m88 337 2 1Z" fill="#37275b"/><path d="m120 277 2 1Z" fill="#39285d"/><path d="m136 251 2 1Z" fill="#3b2a5f"/><path d="m794 152 2 1Z" fill="#38265b"/><path d="m766 131 2 1Z" fill="#36255b"/><path d="m754 123 2 1Z" fill="#36255a"/><path d="m269 122 2 1Z" fill="#342558"/><path d="m736 112 2 1Z" fill="#362558"/><path d="m285 112 2 1Z" fill="#35235b"/><path d="m299 104 2 1Z" fill="#39275d"/><path d="m333 88 2 1Z" fill="#36265c"/><path d="m353 80 2 1Z" fill="#392a5f"/><path d="m361 77 2 1Z" fill="#38285f"/><path d="m376 72 2 1Z" fill="#3e2d62"/><path d="m625 66 2 1Z" fill="#3b2a61"/><path d="m397 66 2 1Z" fill="#382a5e"/><path d="m628 65 2 1Z" fill="#39295f"/><path d="m405 64 2 1Z" fill="#3c2a61"/><path d="m591 59 2 1Z" fill="#3b2861"/><path d="m437 58 2 1Z" fill="#36265d"/><path d="m444 57 2 1Z" fill="#37285d"/><path d="m574 56 2 1Z" fill="#382a5d"/><path d="m571 56 2 1Z" fill="#3a295f"/><path d="m448 56 2 1Z" fill="#392960"/><path d="m529 53 2 1Z" fill="#31235b"/><path d="m521 52 2 1Z" fill="#392962"/><path d="m507 52 2 1Z" fill="#3b2a62"/></svg>